<svg width="46" height="46" viewBox="0 0 46 46" fill="none" xmlns="http://www.w3.org/2000/svg">
<mask id="path-1-inside-1_24_1026" fill="white">
<path d="M0 14C0 6.26801 6.26801 0 14 0H32C39.732 0 46 6.26801 46 14V32C46 39.732 39.732 46 32 46H14C6.26801 46 0 39.732 0 32V14Z"/>
</mask>
<path d="M0 14C0 6.26801 6.26801 0 14 0H32C39.732 0 46 6.26801 46 14V32C46 39.732 39.732 46 32 46H14C6.26801 46 0 39.732 0 32V14Z" fill="#CEF739"/>
<path d="M14 0V4H32V0V-4H14V0ZM46 14H42V32H46H50V14H46ZM32 46V42H14V46V50H32V46ZM0 32H4V14H0H-4V32H0ZM14 46V42C8.47715 42 4 37.5228 4 32H0H-4C-4 41.9411 4.05887 50 14 50V46ZM46 32H42C42 37.5228 37.5228 42 32 42V46V50C41.9411 50 50 41.9411 50 32H46ZM32 0V4C37.5228 4 42 8.47715 42 14H46H50C50 4.05887 41.9411 -4 32 -4V0ZM14 0V-4C4.05887 -4 -4 4.05887 -4 14H0H4C4 8.47715 8.47715 4 14 4V0Z" fill="#1C1C1E" mask="url(#path-1-inside-1_24_1026)"/>
<path d="M19.25 17V29M21.875 26.375L19.25 29L16.625 26.375M26.75 29V17M29.375 19.625L26.75 17L24.125 19.625" stroke="#0A0A0A" stroke-width="1.65" stroke-linecap="round" stroke-linejoin="round"/>
</svg>
